<svg width="18" height="18" viewBox="0 0 18 18" fill="none" xmlns="http://www.w3.org/2000/svg">
<path d="M7.2 4.5C7.19982 5.75158 7.57243 6.97484 8.2703 8.01379C8.96818 9.05274 9.9597 9.86028 11.1184 10.3334C12.2771 10.8065 13.5505 10.9238 14.7761 10.6703C15.8371 10.4509 16.8207 10.0296 17.634 9.34045C17.7735 9.22223 18 9.31714 18 9.5C18 14.4707 13.9707 18 9 18C4.0293 18 0 13.9707 0 9C0 4.0293 3.5293 0 8.5 0C8.71557 0 8.82743 0.267165 8.68811 0.431665C8.2752 0.919184 7.93832 1.46775 7.69003 2.05891C7.36544 2.83176 7.19882 3.66176 7.2 4.5ZM1.8 9C1.79935 10.6065 2.33597 12.167 3.3245 13.4334C4.31303 14.6997 5.69667 15.5991 7.25527 15.9883C8.81387 16.3776 10.4579 16.2345 11.9258 15.5817C13.3936 14.9289 14.601 13.8039 15.3558 12.3858C14.0125 12.7023 12.6106 12.6703 11.2831 12.2928C9.95567 11.9154 8.74665 11.2051 7.77079 10.2292C6.79493 9.25335 6.08458 8.04433 5.70715 6.71686C5.32972 5.38939 5.29773 3.9875 5.6142 2.6442C4.46182 3.25812 3.49811 4.1739 2.82623 5.29348C2.15436 6.41306 1.79962 7.69429 1.8 9Z" fill="#3D3B39"/>
</svg>
