<svg width="22" height="22" viewBox="0 0 22 22" fill="none" xmlns="http://www.w3.org/2000/svg">
<path fill-rule="evenodd" clip-rule="evenodd" d="M2 11.0052C2 6.03763 6.03958 2 11 2C15.9604 2 20 6.03763 20 11.0052C20 15.9624 15.9604 20 11 20C6.03958 20 2 15.9624 2 11.0052ZM14.3012 11.9161C14.3967 11.8205 14.5183 11.6729 14.5444 11.6382C14.6834 11.4559 14.7529 11.2301 14.7529 11.0052C14.7529 10.7525 14.6747 10.5181 14.527 10.3271C14.5149 10.315 14.4912 10.2892 14.4603 10.2556C14.4026 10.1927 14.3196 10.1024 14.2403 10.0232C13.528 9.25904 11.6689 8.00868 10.6959 7.62663C10.5483 7.56671 10.1747 7.4356 9.9749 7.42692C9.78378 7.42692 9.60135 7.47033 9.4276 7.55716C9.21042 7.67873 9.03667 7.86975 8.94111 8.09551C8.8803 8.25181 8.78474 8.72069 8.78474 8.72938C8.68918 9.24168 8.63706 10.0753 8.63706 10.9957C8.63706 11.8735 8.68918 12.6715 8.76737 13.1925C8.76952 13.1946 8.77699 13.2319 8.7886 13.2898C8.82389 13.4657 8.89742 13.8324 8.97586 13.9826C9.16698 14.3473 9.54054 14.5731 9.94015 14.5731H9.9749C10.2355 14.5644 10.7828 14.3386 10.7828 14.33C11.7037 13.9479 13.5193 12.7583 14.249 11.9682L14.3012 11.9161Z" fill="#3D3B39"/>
</svg>
