<svg width="18" height="18" viewBox="0 0 18 18" fill="none" xmlns="http://www.w3.org/2000/svg">
<path fill-rule="evenodd" clip-rule="evenodd" d="M9.33334 9.0801C9.4101 9.11909 9.48198 9.17229 9.54545 9.23964C9.54915 9.24357 9.55281 9.24753 9.55643 9.25152L12.172 12.1122C12.4685 12.4366 12.461 12.9546 12.1552 13.2692C11.8493 13.5838 11.3609 13.5758 11.0643 13.2514L9.77139 11.8372V17.1818C9.77139 17.6337 9.42601 18 8.99996 18C8.57391 18 8.22853 17.6337 8.22853 17.1818V11.8372L6.93559 13.2514C6.639 13.5758 6.15061 13.5838 5.84475 13.2692C5.53889 12.9546 5.53138 12.4366 5.82797 12.1122L8.4435 9.25152C8.44711 9.24753 8.45077 9.24357 8.45448 9.23964C8.51794 9.17229 8.58982 9.11909 8.66658 9.0801C8.67738 9.07461 8.68819 9.06946 8.69917 9.06453C8.78729 9.02492 8.8838 9.00218 8.98508 9.00015C8.99131 9.00002 8.99754 8.99998 9.00376 9.00001C9.10113 9.00053 9.19826 9.02041 9.28976 9.05969C9.2934 9.06125 9.29714 9.06291 9.30076 9.06453C9.29711 9.06289 9.29344 9.06128 9.28976 9.05969C9.20139 9.02168 9.10488 9.00053 9.00376 9.00001" fill="#3D3B39"/>
<path fill-rule="evenodd" clip-rule="evenodd" d="M4.40594 2.24763C5.1396 0.910241 6.55741 0 9 0C11.4426 0 12.8604 0.910241 13.5941 2.24763C14.0955 3.16169 14.2194 4.1888 14.2499 4.98145C14.8914 5.09887 15.6295 5.37164 16.2859 5.88855C17.2631 6.65815 18 7.92561 18 9.81818C18 11.0748 17.6752 12.0715 17.1469 12.8332C16.6237 13.5877 15.935 14.0629 15.2734 14.3464C14.8784 14.5157 14.4288 14.3132 14.2692 13.8943C14.1096 13.4753 14.3004 12.9984 14.6954 12.8292C15.1512 12.6339 15.5846 12.3243 15.9041 11.8636C16.2185 11.4103 16.4571 10.7615 16.4571 9.81818C16.4571 8.43801 15.9473 7.66003 15.3661 7.20235C14.747 6.7148 13.9834 6.54545 13.4883 6.54545C13.0623 6.54545 12.7169 6.17914 12.7169 5.72727C12.7169 4.87874 12.7015 3.8744 12.2605 3.07055C11.8721 2.36248 11.0457 1.63636 9 1.63636C6.95428 1.63636 6.12793 2.36248 5.73951 3.07055C5.29854 3.8744 5.28312 4.87874 5.28312 5.72727C5.28312 6.17914 4.93774 6.54545 4.51169 6.54545C4.01666 6.54545 3.25302 6.7148 2.6339 7.20235C2.05273 7.66003 1.54286 8.43802 1.54286 9.81818C1.54286 10.7615 1.78147 11.4103 2.09591 11.8636C2.4154 12.3243 2.84883 12.6339 3.30456 12.8292C3.69959 12.9984 3.89044 13.4753 3.73084 13.8943C3.57125 14.3132 3.12163 14.5157 2.72661 14.3464C2.06496 14.0629 1.37631 13.5877 0.853072 12.8332C0.324771 12.0715 0 11.0748 0 9.81818C0 7.92561 0.736881 6.65814 1.71415 5.88855C2.37054 5.37164 3.10856 5.09887 3.75011 4.98145C3.7806 4.1888 3.90452 3.16169 4.40594 2.24763Z" fill="#3D3B39"/>
</svg>
